<svg xmlns="http://www.w3.org/2000/svg" viewBox="0 0 53.16 13.67" width="53.16" height="13.67">
  <g transform="translate(-14.17 -2.08)">
    <path d="M 52.05 15.57 C 51.69 15.43 51.36 15.41 49.17 15.39 C 47.06 15.38 46.66 15.4 46.35 15.51 C 46 15.65 45.97 15.64 45.6 15.47 L 45.21 15.29 L 29.89 15.28 C 15.95 15.27 14.56 15.25 14.37 15.13 L 14.17 15 L 14.33 14.69 C 14.48 14.39 15.08 13.84 16.58 12.64 C 17.59 11.82 20.07 10.04 21 9.44 C 23.11 8.1 26.04 6.55 28.11 5.68 C 32.04 4.02 36.43 2.87 40.73 2.38 C 41.32 2.31 42.66 2.21 43.71 2.17 C 45.04 2.11 46.19 2.1 47.42 2.16 C 51.52 2.36 54.58 2.81 57.87 3.72 C 59.75 4.24 61.31 4.76 63 5.44 C 64.88 6.19 66.4 6.91 66.93 7.3 C 67.34 7.6 67.35 7.61 67.29 7.95 C 67.26 8.14 67.21 9.74 67.18 11.5 C 67.13 14.37 67.11 14.75 66.97 15.06 L 66.82 15.42 L 64.78 15.42 C 63.09 15.42 62.7 15.44 62.41 15.55 C 62.09 15.68 62.04 15.68 61.63 15.55 C 61.27 15.44 60.8 15.42 58.86 15.42 C 56.92 15.42 56.46 15.44 56.13 15.55 C 55.75 15.68 55.7 15.68 55.32 15.54 C 55 15.43 54.72 15.41 53.94 15.43 C 53.27 15.45 52.88 15.51 52.71 15.59 C 52.48 15.71 52.42 15.71 52.05 15.57 Z" fill="#ff3319" fill-rule="evenodd"/>
  </g>
</svg>
