<svg xmlns="http://www.w3.org/2000/svg" viewBox="0 0 46 13.08" width="46" height="13.08">
  <g transform="translate(-20.33 -0.5)">
    <path d="M 61.54 13.5 C 59.39 13.47 49.4 13.44 39.35 13.43 C 21.38 13.42 20.33 13.4 20.33 13.16 C 20.33 13.13 20.4 12.93 20.49 12.73 C 20.61 12.45 20.92 12.11 21.76 11.37 C 23.52 9.78 23.83 9.52 24.62 8.93 C 25.84 8.02 27.95 6.66 29.35 5.89 C 30.06 5.49 31.62 4.73 32.8 4.2 C 35 3.21 37.08 2.46 38.92 2 C 39.44 1.87 40.17 1.68 40.54 1.59 C 41.43 1.35 44.79 0.8 46.09 0.67 C 48.16 0.46 53.4 0.56 55.46 0.83 C 56.88 1.03 57.89 1.18 58.25 1.26 C 58.46 1.3 59.02 1.45 59.5 1.59 C 59.98 1.73 60.82 1.96 61.38 2.09 C 63.15 2.53 65.19 3.23 65.61 3.53 C 65.74 3.63 65.95 3.87 66.09 4.08 L 66.33 4.45 L 66.33 8.66 C 66.32 11.68 66.29 12.97 66.22 13.21 C 66.13 13.52 66.1 13.54 65.79 13.55 C 65.61 13.55 63.7 13.53 61.54 13.5 Z" fill="#b5d1cc" fill-rule="evenodd"/>
  </g>
</svg>
