<svg xmlns="http://www.w3.org/2000/svg" viewBox="0 0 84.09 18.84" width="84.09" height="18.84">
  <g transform="translate(-0.08 -0.08)">
    <path d="M 16.41 18.83 C 16.35 18.79 16.3 18.66 16.3 18.53 C 16.29 18.33 16.25 18.29 15.97 18.23 C 15.72 18.18 15.59 18.2 15.39 18.32 C 15.17 18.46 14.88 18.49 13.54 18.54 C 12.66 18.57 11.81 18.57 11.64 18.54 C 11.38 18.49 11.32 18.44 11.28 18.24 C 11.25 18.11 11.2 17.98 11.17 17.96 C 11.14 17.94 11.03 18.03 10.93 18.17 L 10.75 18.42 L 9.84 18.42 C 8.96 18.42 8.93 18.41 8.62 18.16 C 8.22 17.84 7.96 17.7 7.62 17.63 C 7.4 17.58 7.3 17.62 7.01 17.86 C 6.65 18.17 5.66 18.55 5.45 18.47 C 5.38 18.44 5.06 18.46 4.74 18.5 C 4.33 18.56 3.92 18.56 3.43 18.5 C 2.78 18.42 2.69 18.38 2.5 18.15 C 2.34 17.96 2.21 17.89 2.02 17.9 C 1.88 17.9 1.61 18.01 1.41 18.14 C 0.89 18.49 0.74 18.56 0.4 18.62 L 0.08 18.67 L 0.08 9.38 L 0.08 0.08 L 32.54 0.08 L 65 0.08 L 65 0.27 C 65 0.5 64.78 0.83 64.63 0.83 C 64.57 0.83 64.48 0.88 64.43 0.95 C 64.32 1.07 64.31 1.27 64.36 1.83 C 64.39 2.14 64.45 2.24 64.74 2.48 C 64.93 2.64 65.18 2.94 65.29 3.16 C 65.6 3.78 65.72 3.85 66.64 3.92 C 67.17 3.96 67.6 4.04 67.85 4.15 C 68.06 4.24 68.44 4.51 68.7 4.74 C 68.95 4.97 69.34 5.24 69.55 5.34 C 69.77 5.44 70.16 5.55 70.42 5.58 C 70.68 5.62 70.96 5.69 71.05 5.74 C 71.14 5.79 71.34 5.88 71.51 5.95 C 71.75 6.04 71.84 6.14 71.92 6.39 C 71.97 6.56 72.16 6.86 72.34 7.04 C 72.71 7.42 72.83 7.84 72.83 8.69 C 72.83 9.2 72.81 9.29 72.52 9.69 C 72.35 9.93 72.09 10.27 71.94 10.45 C 71.79 10.63 71.65 10.9 71.62 11.04 C 71.54 11.48 71.72 11.95 72.09 12.29 C 72.35 12.52 72.48 12.59 72.62 12.55 C 72.73 12.52 73.02 12.54 73.26 12.59 C 73.78 12.68 73.98 12.76 75.12 13.37 C 75.4 13.51 75.66 13.58 75.94 13.58 C 76.16 13.58 76.42 13.54 76.51 13.5 C 76.59 13.45 76.67 13.36 76.67 13.29 C 76.67 13.22 76.68 13.17 76.7 13.17 C 76.72 13.17 76.86 13.22 77.03 13.29 C 77.19 13.36 77.49 13.42 77.69 13.42 C 77.88 13.42 78.32 13.49 78.65 13.58 C 78.98 13.67 79.44 13.75 79.68 13.75 C 80.15 13.75 80.61 13.96 80.86 14.29 C 80.95 14.42 81.06 14.9 81.17 15.59 C 81.26 16.19 81.4 16.8 81.48 16.94 C 81.78 17.45 81.81 17.51 82 17.71 C 82.11 17.82 82.17 17.94 82.14 17.97 C 82.11 18 82.16 18.12 82.26 18.22 C 82.4 18.37 82.54 18.42 82.83 18.42 C 83.21 18.42 84.05 18.61 84.15 18.71 C 84.18 18.75 83.68 18.75 83.04 18.71 C 81.85 18.65 79 18.57 77.96 18.56 C 77.64 18.56 76.34 18.6 75.08 18.66 C 72.83 18.77 71.15 18.77 55.46 18.7 C 45.67 18.65 42.4 18.66 42.08 18.71 C 41.92 18.73 40.97 18.79 39.97 18.82 C 38.79 18.87 38.04 18.87 37.85 18.81 C 37.67 18.76 36.26 18.72 34.58 18.72 C 32.4 18.71 31.56 18.68 31.37 18.6 C 31.14 18.5 31.1 18.44 31.03 18.02 L 30.96 17.54 L 30.51 17.54 L 30.06 17.54 L 30.04 17.86 C 29.99 18.41 29.94 18.48 29.56 18.55 C 29.07 18.63 24.91 18.65 23.79 18.57 C 22.72 18.49 17.73 18.63 17.37 18.74 C 16.98 18.87 16.54 18.91 16.41 18.83 Z" fill="#e4e4e2" fill-rule="evenodd"/>
  </g>
</svg>
