<svg xmlns="http://www.w3.org/2000/svg" viewBox="0 0 45.67 42.34" width="45.67" height="42.34">
  <g transform="translate(-0.08 -54.83)">
    <path d="M 43.09 97.07 C 41.34 96.96 38.79 96.62 36.97 96.24 C 35.05 95.85 32.53 95.18 30.92 94.62 C 28.37 93.75 25.75 92.57 23.04 91.09 C 22.26 90.66 21.14 89.99 20.54 89.6 C 19.14 88.69 16.56 86.75 15.29 85.65 C 14.74 85.18 13.77 84.29 13.13 83.67 C 11.89 82.46 10.05 80.4 8.94 78.98 C 8.08 77.88 6.85 76.11 5.98 74.71 C 5.14 73.36 3.79 70.87 3.16 69.5 C 2.41 67.87 1.53 65.61 0.96 63.88 C 0.55 62.61 0.41 62.27 0.26 62.21 L 0.08 62.13 L 0.08 58.58 L 0.08 55.02 L 1.15 54.97 C 1.73 54.94 11.67 54.92 23.24 54.92 C 34.8 54.92 44.54 54.9 44.87 54.87 L 45.48 54.81 L 45.61 55.21 C 45.74 55.58 45.75 57.32 45.75 75.75 C 45.75 86.83 45.73 96.12 45.7 96.4 L 45.64 96.9 L 45.17 97.03 C 44.91 97.11 44.59 97.16 44.45 97.15 C 44.32 97.15 43.7 97.11 43.09 97.07 Z" fill="#ce2b08" fill-rule="evenodd"/>
  </g>
</svg>
